<?xml version="1.0" standalone="no"?>
<!DOCTYPE svg PUBLIC "-//W3C//DTD SVG 1.1//EN" "http://www.w3.org/Graphics/SVG/1.1/DTD/svg11.dtd">
<svg width="100%" height="100%" viewBox="0 0 834 400" version="1.1" xmlns="http://www.w3.org/2000/svg" xmlns:xlink="http://www.w3.org/1999/xlink" xml:space="preserve" style="fill-rule:evenodd;clip-rule:evenodd;stroke-linejoin:round;stroke-miterlimit:1.41421;">
    <g transform="matrix(4.16667,0,0,4.16667,0,0)">
        <clipPath id="_clip1">
            <rect x="0.06" y="0.215" width="199" height="95.725"/>
        </clipPath>
        <g clip-path="url(#_clip1)">
            <path d="M91.277,81.621C91.277,82.68 91.358,83.642 91.519,84.509C91.68,85.377 91.982,86.107 92.426,86.699C92.869,87.292 93.463,87.757 94.21,88.096C94.955,88.435 95.892,88.604 97.021,88.604C98.351,88.604 99.549,88.149 100.618,87.239C101.685,86.329 102.22,84.922 102.22,83.018C102.22,82.002 102.088,81.124 101.827,80.383C101.564,79.643 101.132,78.977 100.527,78.384C99.922,77.792 99.127,77.252 98.139,76.766C97.151,76.28 95.933,75.782 94.481,75.274C92.547,74.598 90.874,73.856 89.464,73.052C88.052,72.249 86.873,71.307 85.927,70.227C84.979,69.149 84.284,67.901 83.841,66.483C83.397,65.065 83.176,63.426 83.176,61.563C83.176,57.079 84.365,53.735 86.743,51.535C89.121,49.335 92.385,48.234 96.537,48.234C98.472,48.234 100.255,48.456 101.887,48.901C103.52,49.345 104.93,50.065 106.119,51.058C107.308,52.054 108.235,53.323 108.9,54.867C109.565,56.412 109.898,58.263 109.898,60.421L109.898,61.69L101.555,61.69C101.555,59.533 101.192,57.872 100.467,56.708C99.741,55.544 98.532,54.962 96.839,54.962C95.872,54.962 95.065,55.111 94.421,55.407C93.776,55.703 93.262,56.095 92.879,56.581C92.496,57.068 92.234,57.628 92.094,58.263C91.952,58.898 91.882,59.554 91.882,60.23C91.882,61.627 92.164,62.801 92.729,63.753C93.293,64.706 94.502,65.584 96.355,66.388L103.066,69.434C104.718,70.196 106.068,70.989 107.117,71.814C108.165,72.64 109,73.528 109.626,74.48C110.25,75.433 110.684,76.48 110.926,77.623C111.167,78.765 111.288,80.034 111.288,81.431C111.288,86.213 109.968,89.693 107.329,91.872C104.688,94.052 101.011,95.141 96.295,95.141C91.377,95.141 87.862,94.021 85.746,91.777C83.63,89.535 82.572,86.318 82.572,82.129L82.572,80.288L91.277,80.288L91.277,81.621" style="fill:rgb(235,28,38);fill-rule:nonzero;"/>
            <path d="M131.964,90.444C131.077,92.137 129.928,93.343 128.518,94.062C127.107,94.781 125.495,95.141 123.682,95.141C121.021,95.141 118.976,94.411 117.545,92.951C116.114,91.491 115.399,89.048 115.399,85.62L115.399,60.294L123.742,60.294L123.742,83.843C123.742,85.62 124.023,86.858 124.588,87.556C125.152,88.254 126.059,88.604 127.309,88.604C130.25,88.604 131.722,86.721 131.722,82.954L131.722,60.294L140.065,60.294L140.065,94.443L132.085,94.443L132.085,90.444L131.964,90.444" style="fill:rgb(235,28,38);fill-rule:nonzero;"/>
            <path d="M153.607,60.294L153.607,64.293L153.728,64.293C154.614,62.601 155.763,61.363 157.174,60.579C158.584,59.797 160.197,59.406 162.011,59.406C164.671,59.406 166.716,60.167 168.147,61.69C169.577,63.214 170.293,65.689 170.293,69.117L170.293,94.443L161.95,94.443L161.95,70.894C161.95,69.117 161.668,67.879 161.104,67.181C160.539,66.483 159.632,66.134 158.383,66.134C155.441,66.134 153.97,68.017 153.97,71.783L153.97,94.443L145.627,94.443L145.627,60.294L153.607,60.294" style="fill:rgb(235,28,38);fill-rule:nonzero;"/>
            <path d="M117.939,16.507L108.525,4.533L109.907,19.705C112.463,18.431 115.143,17.352 117.939,16.507" style="fill:rgb(235,28,38);fill-rule:nonzero;"/>
            <path d="M125.905,14.761C127.35,14.562 128.787,14.441 130.218,14.363L123.937,0.471L121.645,15.544C123.044,15.232 124.46,14.96 125.905,14.761" style="fill:rgb(235,28,38);fill-rule:nonzero;"/>
            <path d="M106.53,21.53L94.534,12.165L99.509,26.572C101.696,24.711 104.036,23.015 106.53,21.53" style="fill:rgb(235,28,38);fill-rule:nonzero;"/>
            <path d="M96.675,29.15L82.776,22.924L91.058,35.728C92.747,33.388 94.618,31.181 96.675,29.15" style="fill:rgb(235,28,38);fill-rule:nonzero;"/>
            <path d="M142.644,15.195L139.872,0.215L134.046,14.288C136.967,14.346 139.838,14.66 142.644,15.195" style="fill:rgb(235,28,38);fill-rule:nonzero;"/>
            <path d="M180.24,45.095L190.995,34.304L176.112,37.501C177.69,39.891 179.066,42.432 180.24,45.095" style="fill:rgb(235,28,38);fill-rule:nonzero;"/>
            <path d="M181.668,48.656C182.617,51.337 183.345,54.135 183.851,57.023L196.885,49.113L181.668,48.656" style="fill:rgb(235,28,38);fill-rule:nonzero;"/>
            <path d="M173.87,34.39L181.732,21.334L168.037,28.006C170.153,29.959 172.099,32.099 173.87,34.39" style="fill:rgb(235,28,38);fill-rule:nonzero;"/>
            <path d="M165.123,25.525L169.634,10.959L157.937,20.711C160.467,22.11 162.865,23.729 165.123,25.525" style="fill:rgb(235,28,38);fill-rule:nonzero;"/>
            <path d="M154.511,18.996L155.405,3.78L146.388,16.04C149.191,16.795 151.902,17.795 154.511,18.996" style="fill:rgb(235,28,38);fill-rule:nonzero;"/>
            <path d="M176.993,93.021L191.982,95.742L180.883,85.298C179.797,87.983 178.502,90.569 176.993,93.021" style="fill:rgb(235,28,38);fill-rule:nonzero;"/>
            <path d="M182.2,81.696L197.393,80.751L184.121,73.269C183.711,76.15 183.073,78.969 182.2,81.696" style="fill:rgb(235,28,38);fill-rule:nonzero;"/>
            <path d="M184.533,69.455L199.06,64.901L184.372,60.81C184.666,63.727 184.722,66.617 184.533,69.455" style="fill:rgb(235,28,38);fill-rule:nonzero;"/>
            <path d="M4.071,69.379L11.212,69.379C12.59,69.379 19.48,68.878 19.48,60.484C19.48,53.595 16.348,51.778 9.959,51.778L4.071,51.778L4.071,69.379ZM4.071,73.012L4.071,95.123L0,95.123L0,48.145L9.082,48.145C17.664,48.145 23.551,50.65 23.551,60.171C23.551,64.744 21.61,70.131 16.662,71.196L16.662,71.321C22.111,72.699 22.862,76.895 22.925,82.784C23.05,85.039 22.737,93.307 25.055,94.559L25.055,95.123L20.607,95.123C18.854,91.177 18.979,83.159 18.729,79.714C18.29,73.451 13.592,73.012 8.268,73.012L4.071,73.012" style="fill:rgb(235,28,38);fill-rule:nonzero;"/>
            <path d="M45.788,74.453C45.788,70.068 45.349,62.865 39.461,62.865C33.824,62.865 33.197,70.381 33.197,74.453L45.788,74.453ZM49.42,77.647L33.197,77.647C33.197,82.095 32.571,92.806 39.711,92.806C44.848,92.806 45.474,87.982 45.788,83.848L49.295,83.848C49.295,90.175 46.727,96 39.649,96C30.003,96 29.565,85.101 29.565,77.96C29.565,71.008 30.003,59.67 39.524,59.67C47.542,59.67 49.42,67.563 49.42,74.14L49.42,77.647" style="fill:rgb(235,28,38);fill-rule:nonzero;"/>
            <path d="M58.127,78.399C58.127,83.285 58.44,92.806 65.268,92.806C72.659,92.806 72.032,81.092 72.032,76.332C72.032,71.634 71.719,62.865 65.08,62.865C58.189,62.865 58.127,73.701 58.127,78.399ZM72.032,48.145L75.665,48.145L75.665,95.123L72.032,95.123L72.032,91.866L71.907,91.866C70.466,94.684 67.773,96 64.453,96C55.12,96 54.494,84.663 54.494,77.71C54.494,70.757 55.308,59.67 64.579,59.67C67.335,59.67 70.09,61.048 71.907,63.366L72.032,63.366L72.032,48.145" style="fill:rgb(235,28,38);fill-rule:nonzero;"/>
        </g>
    </g>
</svg>
